<?xml version="1.0" standalone="no"?>
<!DOCTYPE svg PUBLIC "-//W3C//DTD SVG 20010904//EN"
 "http://www.w3.org/TR/2001/REC-SVG-20010904/DTD/svg10.dtd">
<svg version="1.0" xmlns="http://www.w3.org/2000/svg"
 width="239.000000pt" height="108.000000pt" viewBox="0 0 239.000000 108.000000"
 preserveAspectRatio="xMidYMid meet">

<g transform="translate(0.000000,108.000000) scale(0.100000,-0.100000)"
fill="#000000" stroke="none">
<path d="M1621 1055 c-24 -14 -64 -42 -90 -63 -37 -31 -62 -42 -131 -56 -108
-23 -180 -52 -267 -108 -130 -85 -221 -196 -353 -432 -30 -54 -62 -103 -70
-108 -12 -8 -47 14 -150 91 -74 55 -163 114 -198 132 -110 54 -159 27 -266
-148 -74 -121 -109 -224 -85 -248 11 -10 114 -20 419 -39 223 -15 423 -26 445
-26 l40 0 2 108 c5 282 142 521 323 561 134 30 265 -98 278 -271 7 -98 -2
-133 -41 -156 -18 -10 -58 -34 -89 -52 -32 -19 -58 -40 -58 -46 0 -23 59 -75
115 -100 48 -22 67 -26 119 -22 35 3 81 15 106 28 51 25 110 77 110 97 0 7
-29 29 -64 50 -73 43 -80 59 -66 150 44 275 372 303 514 44 63 -116 72 -293
21 -414 -6 -15 1 -17 72 -17 111 0 120 10 104 122 -46 323 -97 447 -245 593
-83 82 -173 142 -259 173 -47 17 -48 18 -42 53 8 44 -12 64 -54 56 -27 -6 -28
-4 -27 31 1 35 -1 37 -34 40 -23 1 -50 -6 -79 -23z m22 -810 c42 -25 77 -51
77 -58 0 -17 -31 -35 -108 -63 l-64 -23 -66 25 c-118 44 -120 58 -9 118 45 25
84 46 87 46 3 0 40 -20 83 -45z"/>
<path d="M1244 464 c-24 -37 -9 -98 25 -102 46 -7 68 59 35 106 -20 29 -40 28
-60 -4z"/>
<path d="M1836 418 c-9 -12 -16 -34 -16 -48 0 -30 25 -70 45 -70 20 0 45 40
45 70 0 30 -25 70 -45 70 -8 0 -21 -10 -29 -22z"/>
</g>
</svg>
